<?xml version="1.0" standalone="no"?>
<!DOCTYPE svg PUBLIC "-//W3C//DTD SVG 20010904//EN"
 "http://www.w3.org/TR/2001/REC-SVG-20010904/DTD/svg10.dtd">
<svg version="1.0" xmlns="http://www.w3.org/2000/svg"
 width="224.000000pt" height="56.000000pt" viewBox="0 0 224.000000 56.000000"
 preserveAspectRatio="xMidYMid meet">

<g transform="translate(0.000000,56.000000) scale(0.100000,-0.100000)"
fill="#000000" stroke="none">
<path d="M261 480 c0 -8 -21 -27 -46 -42 -25 -15 -45 -34 -45 -42 0 -9 -7 -12
-20 -9 -12 3 -20 0 -20 -6 0 -7 -5 -9 -12 -5 -6 4 -9 3 -5 -2 3 -5 -2 -18 -10
-29 -15 -20 -15 -20 -10 3 3 12 1 19 -4 16 -5 -3 -6 -23 -3 -45 4 -23 2 -50
-4 -62 -6 -12 -13 -55 -14 -95 -3 -71 -3 -72 22 -73 14 0 32 -2 40 -4 12 -2
14 10 12 71 l-4 74 37 0 36 0 -2 -72 c-1 -40 2 -73 7 -75 5 -2 8 29 6 72 l-4
75 46 0 46 0 0 -75 c0 -41 3 -75 8 -75 4 0 6 34 4 75 l-4 75 36 0 36 0 0 -73
0 -73 38 4 37 4 -3 81 c-2 45 -8 86 -13 92 -5 5 -9 18 -10 30 0 20 0 20 -9 0
l-9 -20 -1 20 c-1 19 -2 18 -10 -2 -5 -13 -16 -23 -25 -23 -9 0 -15 9 -16 23
0 21 -1 21 -9 2 -8 -19 -9 -19 -9 2 -1 19 5 22 46 25 60 4 70 29 23 53 -18 9
-33 15 -34 13 -28 -40 -46 -58 -46 -45 0 9 6 20 14 24 22 13 2 49 -43 74 -22
12 -42 29 -44 38 -4 13 -5 13 -6 1z m-27 -58 c-18 -15 -34 -34 -37 -42 -4 -10
-6 -7 -6 8 -1 15 10 29 32 42 44 27 48 25 11 -8z m94 -109 c2 -26 -1 -43 -7
-43 -6 0 -12 17 -12 38 -1 37 -1 37 -9 7 l-8 -30 -2 30 c-2 25 -3 26 -7 8 -5
-26 -23 -31 -23 -8 0 8 -4 15 -10 15 -5 0 -10 -9 -10 -20 0 -14 7 -20 23 -20
25 0 47 -17 47 -37 0 -14 -90 -19 -90 -5 -1 4 -5 27 -10 52 -4 25 -7 47 -5 51
2 3 30 5 62 5 l58 -1 3 -42z m-148 -13 c0 -11 -6 -20 -12 -21 -7 0 -21 -2 -30
-4 -13 -2 -18 3 -19 18 0 21 -1 21 -9 2 -8 -19 -9 -19 -9 3 -1 19 4 22 39 22
33 0 40 -3 40 -20z m-50 -121 c0 -78 0 -79 -25 -79 -24 0 -25 2 -25 75 0 60 3
76 17 84 10 5 21 7 25 5 5 -3 8 -41 8 -85z m70 76 c11 -13 7 -15 -25 -15 -32
0 -36 2 -25 15 7 8 18 15 25 15 7 0 18 -7 25 -15z m175 5 c5 -8 11 -7 20 0 8
7 23 9 35 5 18 -6 20 -15 20 -86 0 -78 0 -79 -25 -79 -24 0 -25 2 -25 73 l0
73 -42 -5 c-38 -3 -41 -2 -29 13 15 18 37 21 46 6z"/>
<path d="M220 304 c0 -19 4 -33 8 -30 8 5 4 66 -4 66 -2 0 -4 -16 -4 -36z"/>
<path d="M255 260 c4 -6 11 -8 16 -5 14 9 11 15 -7 15 -8 0 -12 -5 -9 -10z"/>
<path d="M112 190 c0 -14 2 -19 5 -12 2 6 2 18 0 25 -3 6 -5 1 -5 -13z"/>
<path d="M412 190 c0 -14 2 -19 5 -12 2 6 2 18 0 25 -3 6 -5 1 -5 -13z"/>
<path d="M580 365 l0 -105 43 0 c64 0 92 18 92 60 0 40 -28 60 -82 60 -30 0
-33 3 -33 30 0 30 1 30 55 30 42 0 55 3 55 15 0 12 -14 15 -65 15 l-65 0 0
-105z m115 -45 c0 -23 -4 -25 -47 -28 -48 -3 -48 -3 -48 28 0 31 0 31 48 28
43 -3 47 -5 47 -28z"/>
<path d="M808 368 c-4 -37 -12 -57 -27 -69 -26 -21 -27 -29 -1 -29 23 0 37 23
46 79 6 37 9 41 35 41 29 0 29 0 29 -65 0 -37 4 -65 10 -65 6 0 10 33 10 80
l0 80 -49 0 -48 0 -5 -52z"/>
<path d="M993 413 c-39 -7 -25 -22 24 -25 59 -4 67 -23 12 -31 -52 -7 -74 -27
-65 -60 8 -32 49 -44 82 -22 21 14 24 14 24 0 0 -8 5 -15 10 -15 6 0 10 25 10
55 0 46 -4 60 -25 80 -24 25 -30 26 -72 18z m77 -91 c0 -16 -25 -32 -51 -32
-29 0 -44 13 -34 30 7 12 85 14 85 2z"/>
<path d="M1150 340 c0 -47 4 -80 10 -80 6 0 10 28 10 65 l0 65 40 0 c29 0 40
4 40 15 0 11 -12 15 -50 15 l-50 0 0 -80z"/>
<path d="M1333 410 c-48 -19 -57 -87 -17 -126 19 -20 31 -24 52 -20 42 10 65
44 58 85 -8 53 -48 79 -93 61z m69 -45 c17 -37 -3 -75 -40 -75 -35 0 -52 16
-52 50 0 34 17 50 52 50 21 0 32 -7 40 -25z"/>
<path d="M1480 340 l0 -80 33 0 c73 0 106 32 72 70 -11 12 -13 20 -6 25 18 10
12 43 -8 55 -11 5 -36 10 -55 10 l-36 0 0 -80z m90 30 c0 -16 -7 -20 -35 -20
-28 0 -35 4 -35 20 0 16 7 20 35 20 28 0 35 -4 35 -20z m5 -65 c0 -5 -17 -11
-37 -13 -30 -3 -38 0 -38 13 0 13 8 16 38 13 20 -2 37 -7 37 -13z"/>
<path d="M1680 407 c-80 -40 -28 -161 60 -142 44 10 36 25 -13 25 -40 0 -67
13 -67 32 0 4 27 8 60 8 57 0 60 1 60 24 0 15 -11 33 -26 45 -31 24 -40 25
-74 8z m78 -34 c2 -9 -11 -13 -48 -13 -46 0 -51 2 -40 16 16 18 81 16 88 -3z"/>
<path d="M1860 407 c-77 -39 -29 -162 55 -141 38 10 30 22 -17 26 -36 3 -44 7
-52 31 -15 41 2 61 53 65 45 3 54 16 19 26 -30 8 -29 8 -58 -7z"/>
<path d="M1970 405 c0 -10 11 -15 35 -15 l34 0 4 -67 3 -68 2 68 2 67 35 0
c24 0 35 5 35 15 0 12 -15 15 -75 15 -60 0 -75 -3 -75 -15z"/>
<path d="M172 190 c0 -14 2 -19 5 -12 2 6 2 18 0 25 -3 6 -5 1 -5 -13z"/>
<path d="M242 190 c0 -14 2 -19 5 -12 2 6 2 18 0 25 -3 6 -5 1 -5 -13z"/>
<path d="M262 190 c0 -14 2 -19 5 -12 2 6 2 18 0 25 -3 6 -5 1 -5 -13z"/>
<path d="M282 190 c0 -14 2 -19 5 -12 2 6 2 18 0 25 -3 6 -5 1 -5 -13z"/>
<path d="M352 190 c0 -14 2 -19 5 -12 2 6 2 18 0 25 -3 6 -5 1 -5 -13z"/>
<path d="M166 133 c-11 -12 -6 -41 9 -47 11 -4 15 1 15 19 0 25 -12 39 -24 28z"/>
<path d="M250 116 c0 -16 7 -26 22 -29 12 -4 24 -4 27 -2 2 3 -1 5 -7 5 -7 0
-12 11 -12 25 0 16 -6 25 -15 25 -9 0 -15 -9 -15 -24z"/>
<path d="M346 133 c-3 -3 -6 -17 -6 -30 0 -16 6 -23 19 -23 14 0 17 6 13 25
-5 27 -15 38 -26 28z"/>
<path d="M173 63 c54 -2 139 -2 190 0 51 1 7 3 -98 3 -104 0 -146 -2 -92 -3z"/>
<path d="M153 43 c65 -2 168 -2 230 0 62 1 9 3 -118 3 -126 0 -177 -2 -112 -3z"/>
</g>
</svg>
