<svg width="24" height="24" viewBox="0 0 24 24" fill="none" xmlns="http://www.w3.org/2000/svg">
    <g clip-path="url(#clip0_1236_4285)">
    <path fill-rule="evenodd" clip-rule="evenodd" d="M11.0533 2.15309C13.6804 1.9095 15.8795 2.60624 17.9991 4.11708C18.7789 4.6729 19.6402 6.16826 20.6779 5.64063C21.2473 5.35109 21.3409 4.69994 21.0524 4.17088C20.7953 3.69918 20.3339 3.36069 19.9304 3.02135C16.0501 -0.242431 10.9254 -0.99211 6.37486 1.41354C-2.70881 6.21571 -1.90988 19.4725 7.65251 23.1935C11.1894 24.5698 15.2623 24.1668 18.4546 22.1239C19.0987 21.7118 20.45 20.6787 20.8947 20.0904C21.8207 18.8653 20.5226 17.6555 19.3404 18.6432C18.9227 18.9923 18.6424 19.4223 18.1911 19.7655C15.6632 21.6881 12.5613 22.4151 9.45816 21.5929C4.76691 20.3501 1.69012 15.9675 2.10525 11.1387C2.5143 6.3811 6.28825 2.59496 11.0532 2.15316L11.0533 2.15309Z" fill="black"/>
    <path fill-rule="evenodd" clip-rule="evenodd" d="M12.6137 13.7486C14.5448 13.7693 16.4812 13.741 18.4132 13.7519C19.3686 13.7574 20.3285 13.7537 21.2842 13.7524C22.0407 13.7514 23.1348 13.8269 23.1391 12.7206C23.1435 11.6042 22.0869 11.6661 21.318 11.6674C20.3502 11.6691 19.3809 11.6699 18.4132 11.6673C16.479 11.662 14.541 11.6817 12.6074 11.665C13.1086 11.0984 14.2482 10.163 14.6001 9.62433C15.2562 8.6195 13.9609 7.32592 12.877 8.41151C12.2025 9.08692 11.5241 9.75747 10.8506 10.4334C10.3659 10.9198 9.02447 12.003 9.0003 12.6586C8.97848 13.2499 9.3944 13.5217 9.76755 13.8996C10.1013 14.2377 10.441 14.5785 10.7803 14.9105C11.4673 15.5829 12.1387 16.2739 12.8232 16.9494C13.9998 18.1106 15.1831 16.7807 14.6325 15.8521C14.2994 15.2903 13.1062 14.3526 12.6137 13.7487L12.6137 13.7486Z" fill="black"/>
    </g>
    <defs>
    <clipPath id="clip0_1236_4285">
    <rect width="24" height="24" fill="white"/>
    </clipPath>
    </defs>
    </svg>