<svg width="30" height="40" viewBox="0 0 30 40" fill="none" xmlns="http://www.w3.org/2000/svg">
	<path fill-rule="evenodd" clip-rule="evenodd" d="M16.113 20.778C19.068 20.068 20.444 23.717 17.481 24.472C14.456 25.242 12.906 21.547 16.113 20.778ZM14.677 36.348L14.734 36.301C15.089 36.419 15.808 38.751 18.363 39.441C21.697 40.342 25.553 38.516 27.563 35.4C28.139 34.506 29.937 31.306 28.411 30.673C27.076 30.12 26.548 33.228 25.704 34.493C24.798 35.85 23.226 36.902 21.653 37.272C16.293 38.534 15.72 33.902 15.769 29.812C18.442 29.011 21.335 25.559 21.159 22.643C20.941 19.033 15.911 17.921 13.045 18.486C9.26696 19.232 7.13196 21.8 9.07496 25.623C11.265 29.927 13.643 29.085 13.751 30.337C14.141 34.837 11.509 39.834 5.94796 36.509C4.60896 35.708 3.69396 34.529 3.02696 33.129C2.77896 32.609 2.39396 31.112 2.17496 30.877C1.54596 30.206 0.42796 30.719 0.46396 31.739C0.55896 34.432 3.51396 37.881 5.93896 38.882C9.27896 40.262 13.004 39.932 14.677 36.349V36.348ZM21.023 15.816C20.254 14.029 19.51 12.251 20.704 10.332C21.804 8.56496 23.911 8.50196 25.469 9.71496C28.731 12.252 28.727 18.559 24.609 18.284C26.866 17.55 27.545 15.17 26.483 13.086L24.05 14.93L24.859 11.797C21.992 11.085 20.956 13.387 21.023 15.815V15.816ZM22.293 6.82296C14.823 8.34296 18.311 21.692 25.657 20.389C33.097 19.069 29.684 5.31896 22.293 6.82296ZM6.23496 14.669L3.88896 12.843C3.19996 13.566 3.14096 14.941 3.42896 15.864C3.77196 16.963 4.20896 17.258 5.05896 17.857C0.91096 17.514 1.51496 12.166 3.91196 9.69696C5.14196 8.43096 7.12196 7.93696 8.57996 9.15996C10.147 10.472 9.76696 12.682 9.36696 14.385C8.71196 13.295 8.87596 11.925 6.89296 11.51C4.68596 11.049 5.67296 11.948 6.23496 14.669ZM5.87996 6.36996C-1.88004 7.65396 -1.84704 21.22 5.90496 19.96C13.637 18.702 13.602 5.09296 5.87996 6.36996ZM19.938 0.0459611C18.824 0.225961 18.666 1.53896 19.381 2.01496C20.106 2.49696 21.939 1.47996 23.868 4.35096C24.342 5.05696 24.542 6.17096 25.513 6.04996C28.176 5.71796 23.947 -0.600039 19.938 0.0459611ZM7.31996 0.0699611C5.60596 0.316961 4.19996 1.38196 3.20796 2.75996C0.78796 6.12896 3.21296 6.61996 3.89896 5.60196C4.83596 4.21196 5.32996 2.67696 7.28296 2.24696C8.09296 2.06896 9.56496 2.49296 9.49296 1.05696C9.43296 -0.125039 8.17596 -0.0530389 7.31896 0.0709611L7.31996 0.0699611Z" fill="#222327" />
</svg>
